<svg width="25" height="24" viewBox="0 0 25 24" fill="none" xmlns="http://www.w3.org/2000/svg">
    <path d="M7.67 10.706 12.5 12l4.829 1.294 4.83 1.294c1.168-4.363-.736-8.825-4.387-11.088a10.002 10.002 0 0 0-2.685-1.16 9.985 9.985 0 0 0-3.338-.315c-4.119.31-7.78 3.171-8.91 7.387l4.83 1.294z" stroke="#979797" stroke-width="2" stroke-linecap="round" stroke-linejoin="round"/>
    <path d="M15.089 2.34s-2.82 1.833-4.434 3.99c-1.613 2.155-2.018 4.635-2.018 4.635M15.09 2.34s1.526 2.998 1.845 5.672c.319 2.673-.57 5.023-.57 5.023M2.84 9.412l4.83 1.294L12.5 12l4.829 1.294 4.83 1.294M2.5 22h20M12.5 12 9.75 22" stroke="#979797" stroke-width="2" stroke-linecap="round" stroke-linejoin="round"/>
    <path d="M11.75 2.025a9.985 9.985 0 0 1 3.338.316c.972.26 1.872.655 2.685 1.16" stroke="#979797" stroke-width="2" stroke-linecap="round" stroke-linejoin="round"/>
</svg>
