<svg width="20" height="20" viewBox="0 0 20 20" fill="none" xmlns="http://www.w3.org/2000/svg">
    <path d="M4.107 13.649c-1.508.452-2.441 1.077-2.441 1.768 0 1.38 3.731 2.5 8.333 2.5 4.603 0 8.334-1.12 8.334-2.5 0-.69-.933-1.316-2.441-1.768" stroke="#737373" stroke-width="1.667" stroke-linecap="round" stroke-linejoin="round"/>
    <path d="M10 14.583s5.416-3.54 5.416-7.632c0-2.919-2.425-5.284-5.416-5.284-2.992 0-5.417 2.365-5.417 5.284 0 4.092 5.417 7.632 5.417 7.632z" stroke="#737373" stroke-width="1.667" stroke-linejoin="round"/>
    <path d="M10 9.167A2.083 2.083 0 1 0 10 5a2.083 2.083 0 0 0 0 4.167z" stroke="#737373" stroke-width="1.667" stroke-linejoin="round"/>
</svg>
